<?xml version="1.0" standalone="no"?>
<!DOCTYPE svg PUBLIC "-//W3C//DTD SVG 20010904//EN"
 "http://www.w3.org/TR/2001/REC-SVG-20010904/DTD/svg10.dtd">
<svg version="1.0" xmlns="http://www.w3.org/2000/svg"
 width="266.000000pt" height="189.000000pt" viewBox="0 0 266.000000 189.000000"
 preserveAspectRatio="xMidYMid meet">
<metadata>
Created by potrace 1.13, written by Peter Selinger 2001-2015
</metadata>
<g transform="translate(0.000000,189.000000) scale(0.100000,-0.100000)"
fill="#000000" stroke="none">
<path d="M1055 1580 c-17 -4 -43 -15 -59 -25 -19 -12 -43 -18 -70 -16 -84 5
-129 -87 -71 -145 18 -18 25 -36 25 -64 0 -29 9 -50 36 -85 l36 -47 -35 -29
c-42 -34 -59 -105 -34 -143 13 -19 13 -31 1 -91 -7 -39 -13 -84 -14 -102 0
-30 2 -32 54 -43 29 -6 71 -20 92 -30 45 -23 47 -24 38 -7 -4 6 -3 9 1 4 5 -4
17 0 27 10 10 9 21 13 25 10 3 -4 1 -7 -5 -7 -7 0 -12 -7 -12 -15 0 -8 -4 -15
-10 -15 -5 0 -10 -6 -10 -12 0 -7 11 -1 25 13 24 24 25 28 14 77 -6 29 -18 60
-27 69 -13 13 -14 15 -2 11 20 -6 48 -60 100 -191 23 -59 47 -107 53 -107 5 0
34 18 63 41 l54 41 -6 92 c-4 76 -20 171 -40 247 -4 13 5 14 71 6 63 -8 79 -7
100 7 13 9 31 16 40 16 8 0 15 4 15 9 0 5 -24 8 -52 7 -43 -1 -53 2 -56 17 -3
15 5 17 62 17 36 0 66 4 66 9 0 18 -60 32 -151 35 -52 2 -102 4 -111 5 -26 2
-22 37 9 77 38 51 43 120 11 159 -35 41 -51 75 -38 75 6 0 20 -16 31 -35 25
-41 42 -44 57 -10 9 20 9 33 -2 60 -17 40 -42 55 -91 55 -22 0 -49 9 -68 22
-34 25 -98 37 -142 28z m115 -260 c61 -31 77 -77 42 -120 -17 -21 -21 -22 -55
-11 -20 7 -37 18 -37 26 0 15 -66 49 -84 42 -7 -3 -19 -1 -26 3 -17 11 0 34
45 62 39 23 66 23 115 -2z"/>
<path d="M790 767 c-67 -16 -107 -36 -146 -75 -43 -43 -92 -102 -84 -102 4 0
1 -24 -7 -52 -41 -152 35 -307 185 -376 47 -21 68 -25 141 -23 95 1 147 12
144 29 -2 6 7 16 18 23 30 15 80 74 105 121 l20 40 13 -41 c7 -23 23 -48 37
-58 14 -9 23 -22 20 -29 -7 -18 16 -24 94 -24 78 0 90 10 90 73 0 27 -7 41
-32 62 -21 18 -34 39 -36 59 -5 42 -27 74 -57 82 -29 7 -81 -9 -77 -25 1 -6
-3 -11 -10 -11 -6 0 -8 -3 -5 -6 3 -4 2 -15 -4 -25 -8 -15 -14 -17 -29 -9 -35
19 -53 13 -46 -15 4 -14 2 -25 -3 -25 -6 0 -7 -7 -4 -17 4 -10 2 -14 -4 -10
-11 7 -28 -20 -24 -37 4 -18 -62 -75 -113 -97 -67 -30 -162 -31 -227 -2 -104
47 -161 131 -167 248 -3 61 0 77 25 125 16 31 34 54 41 52 8 -1 11 2 7 8 -9
14 29 46 90 75 59 29 147 33 210 9 22 -9 45 -16 52 -16 7 -1 10 -4 8 -8 -2 -4
-28 1 -57 11 -29 10 -67 18 -84 19 -40 0 -47 -27 -28 -108 8 -31 14 -72 14
-90 0 -19 4 -32 9 -30 12 4 191 201 191 211 0 11 -61 46 -100 57 -65 17 -115
19 -170 7z"/>
<path d="M1757 756 c-48 -18 -46 -16 -36 -43 8 -23 33 -31 43 -14 4 5 -4 7
-16 5 -13 -3 -7 2 12 11 54 26 147 22 206 -8 97 -50 148 -132 148 -242 0 -161
-113 -279 -268 -279 -174 0 -303 175 -256 344 14 50 67 131 90 137 22 6 25 20
10 43 -16 23 -100 -72 -124 -139 -24 -69 -19 -198 12 -256 50 -98 161 -165
271 -165 108 0 224 80 275 189 30 66 29 187 -3 253 -31 63 -92 125 -149 150
-59 27 -164 33 -215 14z"/>
<path d="M966 570 c-37 -44 -66 -86 -63 -94 5 -11 133 -33 143 -24 6 6 13 58
15 116 2 56 -4 82 -19 82 -4 0 -38 -37 -76 -80z"/>
<path d="M849 447 c15 -19 1 -23 -18 -4 -10 10 -11 9 -6 -5 4 -10 15 -20 26
-23 25 -8 25 -12 -16 -75 -44 -69 -55 -118 -30 -137 37 -26 161 -6 214 36 24
18 27 28 31 101 5 81 8 77 -82 85 -47 4 -93 14 -108 24 -24 15 -24 15 -11 -2z"/>
</g>
</svg>
